<?xml version="1.0" encoding="utf-8"?>
<svg version="1.1" id="Layer_1" xmlns="http://www.w3.org/2000/svg" x="0px" y="0px" width="100%" viewBox="0 333.99 1046.74 333.28" enable-background="new 0 0 1024 1024">
  <path fill="#000000" opacity="1.000000" stroke="none" d=" M711.546082,579.661133 C711.802551,588.930603 711.959412,597.751648 712.209045,606.570007 C712.301575,609.839233 709.784912,611.630676 708.095764,613.715393 C703.699829,619.140625 698.924744,624.259644 694.275574,629.478271 C692.665833,631.285156 690.738464,632.374329 688.181824,632.371826 C657.034912,632.341858 625.888000,632.356018 594.741089,632.347839 C593.777283,632.347595 592.762146,632.381531 591.768677,631.295776 C592.850830,628.419922 595.352966,626.597778 597.193420,624.364258 C602.587219,617.818420 608.246948,611.492126 613.666992,604.967285 C615.601685,602.638306 617.836060,602.255798 620.708313,602.286743 C640.355103,602.498047 660.003967,602.509705 679.652161,602.598877 C681.880188,602.609009 683.853455,602.170654 683.584961,599.396057 C683.282837,596.273987 685.314026,592.458435 680.018433,590.935242 C660.382324,585.287354 640.848206,579.285034 621.274414,573.420288 C619.523682,572.895752 617.760376,572.413452 616.008484,571.892578 C608.077271,569.534424 608.035645,569.532715 607.883057,561.009277 C607.745972,553.349060 607.786560,545.685120 607.598267,538.026550 C607.536377,535.511047 608.371399,533.662048 610.023132,531.783325 C615.080688,526.030457 619.428162,518.863953 626.150208,515.680115 C632.906677,512.479919 641.213013,514.749084 648.831238,514.701721 C672.315491,514.555664 695.801208,514.636658 719.286316,514.678528 C721.220764,514.682007 723.260254,514.185303 725.755188,515.688599 C721.956787,519.930542 718.272827,524.054749 714.577637,528.168823 C710.686646,532.501038 706.647034,536.709900 702.945679,541.198059 C701.070740,543.471619 699.105103,544.411804 696.149048,544.390930 C678.161377,544.263794 660.171875,544.241516 642.184509,544.380798 C639.549072,544.401245 635.325623,542.427002 634.745605,546.898865 C634.226440,550.901855 638.526123,550.328613 640.954590,551.090576 C662.362793,557.807800 683.773193,564.524902 705.277832,570.922852 C709.860168,572.286194 712.173706,574.373596 711.546082,579.661133 z"/>
  <path fill="#000000" opacity="1.000000" stroke="none" d=" M518.000122,514.648926 C535.315002,514.649475 552.130981,514.752869 568.943909,514.571167 C572.650696,514.531128 575.202209,515.726257 577.516479,518.505310 C583.799316,526.049927 590.217102,533.484192 596.687256,540.869507 C598.535828,542.979492 598.620544,545.420532 598.616028,547.888550 C598.586792,564.031860 598.420898,580.175110 598.465271,596.317932 C598.473145,599.185059 597.691589,601.318115 595.755066,603.446533 C588.142151,611.813965 580.707031,620.343262 573.204285,628.810913 C571.275208,630.988098 569.186462,632.440002 565.952515,632.428467 C536.818237,632.325073 507.683411,632.379150 478.548737,632.363770 C477.263580,632.363098 475.884949,632.630127 474.220398,631.233337 C477.524719,627.431030 480.611725,623.409851 484.182800,619.878174 C489.690521,614.431152 492.001465,608.386719 491.844788,600.361755 C491.328186,573.900879 491.783661,547.422363 491.531799,520.953796 C491.483032,515.827271 493.027039,514.255127 498.027161,514.556580 C504.496490,514.946655 511.007172,514.650085 518.000122,514.648926 M573.019226,576.475464 C574.716187,564.874695 572.150146,554.876526 562.665283,547.109985 C560.770935,545.558838 559.210266,544.247925 556.692139,544.150330 C544.863281,543.691833 533.042114,543.845032 521.215881,544.263916 C518.510254,544.359802 517.318481,545.298828 517.328918,548.113586 C517.392517,565.277405 517.402161,582.441833 517.317932,599.605530 C517.302979,602.655334 518.507080,603.731140 521.475830,603.678467 C528.472656,603.554199 535.480103,603.819580 542.469482,603.559143 C547.594910,603.368164 553.874390,604.290833 557.571655,601.730774 C565.737671,596.076538 575.366394,590.247437 573.019226,576.475464 z"/>
  <path fill="#000000" opacity="1.000000" stroke="none" d=" M479.499573,515.497437 C479.993439,518.825867 480.294159,521.807007 480.299622,524.788696 C480.343506,548.775818 480.299530,572.763184 480.378326,596.750183 C480.388031,599.700378 479.835205,602.200073 477.963531,604.593811 C471.199524,613.244751 463.662262,621.289673 457.609833,630.500427 C457.169769,631.170105 456.541443,631.801514 455.025299,631.407837 C452.329895,608.279846 454.385284,584.859497 453.396667,560.247864 C438.212158,578.226074 424.835663,596.282776 410.357635,614.636292 C396.302368,596.851990 382.547455,579.447754 368.792542,562.043518 C368.349762,562.115234 367.906952,562.186951 367.464142,562.258667 C367.464142,573.285156 367.464142,584.311707 367.464142,595.795105 C364.250916,594.552795 363.321045,592.478271 362.148102,590.794250 C356.039642,582.023926 348.862549,574.142456 341.899475,566.080872 C340.811890,564.821777 339.664825,563.667297 339.668549,561.787109 C339.699280,546.332947 339.685913,530.878723 339.685913,514.783875 C348.967499,514.783875 357.895142,514.692566 366.818390,514.849243 C368.999603,514.887512 370.017700,517.090576 371.210266,518.646362 C383.856903,535.144653 397.483246,550.877441 410.007660,568.532227 C414.120056,563.464783 418.093597,558.660522 421.967285,553.777100 C431.480865,541.783691 440.945526,529.751343 450.438477,517.741516 C451.567902,516.312683 452.602112,514.678040 454.744446,514.715637 C462.886169,514.858521 471.044678,514.074524 479.499573,515.497437 z"/>
  <path fill="#000000" opacity="1.000000" stroke="none" d=" M903.514893,435.511841 C899.708679,439.500305 896.005920,443.113739 892.660400,447.032166 C890.885010,449.111481 888.862854,449.386993 886.460876,449.377991 C876.631897,449.341095 866.801331,449.465668 856.974487,449.318665 C853.592773,449.268097 851.976624,450.294098 852.293701,453.876251 C852.498596,456.190979 852.343750,458.537567 852.349976,460.869873 C852.368164,467.730133 852.861450,468.187988 859.845459,467.527802 C876.969482,465.909119 894.139893,467.134125 911.282227,466.660400 C913.025269,466.612244 914.540344,467.032257 915.809998,468.325134 C923.746399,476.406860 931.709961,484.461884 939.645508,492.544434 C940.104004,493.011414 940.450806,493.629852 939.785706,494.839844 C898.103271,494.839844 856.124878,494.839844 813.946228,494.839844 C813.959473,491.529022 816.597717,490.049561 818.443298,488.542358 C826.646301,481.843079 829.385498,473.811584 828.980286,462.972900 C828.034851,437.685699 828.710815,412.339172 828.621887,387.017090 C828.609497,383.491547 829.186096,381.544556 833.467102,381.561676 C868.618042,381.702118 903.769775,381.638336 938.921265,381.652130 C939.898682,381.652496 940.876038,381.827209 941.771179,381.912750 C942.461792,383.532471 941.327148,384.255249 940.576416,385.026337 C933.604675,392.186462 926.544067,399.260956 919.632751,406.478546 C917.632690,408.567169 915.454102,409.267456 912.598389,409.439728 C894.618042,410.524292 876.631042,409.852783 858.647766,409.952454 C856.481079,409.964447 853.333191,408.911469 852.591675,411.888702 C851.721985,415.380829 851.516418,419.236694 852.989075,422.653992 C853.704834,424.314880 856.003235,423.613464 857.614319,423.625122 C875.602295,423.755463 893.590454,423.841187 911.578552,423.948944 C912.366333,423.953674 913.255493,423.692627 913.641602,424.294434 C910.326294,427.977112 907.046570,431.620331 903.514893,435.511841 z"/>
  <path fill="#000000" opacity="1.000000" stroke="none" d=" M694.971558,461.000000 C694.983704,441.002960 694.946228,421.505737 695.036560,402.009064 C695.063538,396.185272 695.534485,390.364624 695.631165,384.539673 C695.676636,381.795197 696.786865,380.626465 699.527527,380.671875 C704.358704,380.751984 709.193909,380.763000 714.023865,380.650208 C716.342590,380.596069 717.578918,381.847809 718.900696,383.500061 C729.408813,396.636047 740.009033,409.698273 750.554993,422.804047 C755.105896,428.459534 755.418030,428.541687 759.912964,422.932251 C769.806152,410.586273 779.692932,398.233551 789.416870,385.754669 C791.667236,382.866669 794.058350,381.379181 797.811951,381.583679 C802.796509,381.855286 807.813904,381.817993 812.803650,381.601593 C816.359619,381.447388 817.698059,382.923187 817.341675,386.297729 C817.324280,386.462341 817.347107,386.630829 817.343506,386.797363 C816.753540,414.286377 818.163513,441.752777 818.324890,469.233948 C818.347107,473.020386 817.227783,475.890533 814.535889,478.548676 C810.158203,482.871674 805.464966,486.916595 801.815002,491.940277 C800.338379,493.972687 798.258484,495.398163 795.840698,494.632080 C793.462952,493.878662 794.092896,491.291016 794.075806,489.397858 C793.898376,469.735352 793.790100,450.072205 793.666077,430.409241 C793.653625,428.438171 793.664368,426.466980 793.664368,423.804840 C790.647827,425.112915 789.542480,427.415070 788.127014,429.255035 C778.480042,441.795013 768.814026,454.322998 759.388611,467.028839 C756.728088,470.615387 755.102783,470.676147 752.351929,467.146912 C742.114624,454.012268 731.649841,441.054840 721.254822,428.043427 C720.973816,427.691559 720.514099,427.482452 719.352173,426.631561 C719.352173,429.339874 719.352783,431.427551 719.352051,433.515259 C719.345764,451.845795 719.370239,470.176453 719.316040,488.506836 C719.296997,494.941223 718.882874,495.280121 712.486694,495.330444 C708.654175,495.360565 704.813538,495.187073 700.990784,495.382935 C697.363525,495.568787 695.755249,494.597687 695.473938,490.475159 C694.814392,480.810333 695.155029,471.155945 694.971558,461.000000 z"/>
  <path fill="#000000" opacity="1.000000" stroke="none" d=" M229.000336,381.649231 C246.655685,381.643341 263.812408,381.751068 280.965485,381.549561 C285.093597,381.501099 286.434631,382.773376 286.409851,386.923676 C286.259552,412.072906 286.328461,437.223511 286.350830,462.373657 C286.352783,464.589569 286.049683,466.449463 284.331146,468.230621 C276.702484,476.137115 269.236420,484.201294 261.760986,492.254395 C259.968903,494.184967 258.050507,495.236237 255.255936,495.214813 C239.767181,495.096069 224.276520,495.094940 208.787750,495.213562 C205.514786,495.238586 203.190887,494.212402 201.009796,491.729553 C194.967056,484.850708 188.717041,478.150787 182.439987,471.482758 C180.479507,469.400116 179.641586,467.167816 179.658035,464.312714 C179.750168,448.323761 179.752625,432.333984 179.693207,416.344818 C179.683350,413.691315 180.401489,411.607819 182.236771,409.611389 C189.900635,401.274658 197.608047,392.988708 205.647568,385.005493 C208.083923,382.586212 210.567352,381.422333 214.012665,381.590759 C218.831329,381.826355 223.670166,381.649658 229.000336,381.649231 M240.500824,410.374268 C234.681305,410.223846 228.855042,410.189514 223.046417,409.851624 C221.323181,409.751373 220.224762,410.156860 219.163422,411.399963 C215.922623,415.195618 212.658066,418.972900 209.319366,422.682220 C207.766068,424.407959 207.231476,426.313690 207.255310,428.606720 C207.345337,437.265594 207.308212,445.925873 207.306534,454.585602 C207.306168,456.432526 207.479675,458.096710 208.757675,459.698975 C212.665024,464.597931 216.946732,468.109039 223.899124,466.993652 C227.632828,466.394653 231.634277,466.358398 235.355270,466.997559 C245.775467,468.787476 252.846161,464.309509 258.253998,455.950470 C259.677734,453.749786 261.719086,452.037262 261.686310,448.992310 C261.562469,437.502869 261.583282,426.011139 261.647156,414.520813 C261.663635,411.557709 260.473022,410.292999 257.486664,410.351105 C252.159637,410.454712 246.829117,410.377258 240.500824,410.374268 z"/>
  <path fill="#000000" opacity="1.000000" stroke="none" d=" M428.999939,495.283234 C412.760742,495.283630 397.021515,495.283630 381.522125,495.283630 C380.735504,492.496796 382.253326,491.722076 383.203033,490.654114 C388.626373,484.555206 394.028809,478.437561 399.482178,472.365601 C401.833191,469.747894 402.732056,466.805664 402.706970,463.246429 C402.580170,445.248169 402.586975,427.248138 402.701721,409.249695 C402.725769,405.476105 402.299713,401.931824 400.251648,398.740448 C398.387024,395.834900 398.982025,393.496429 400.685760,390.521088 C404.532257,383.803680 409.410736,381.185455 417.543182,381.413025 C441.356750,382.079376 465.201111,381.622101 489.033112,381.693787 C491.026337,381.699768 493.768188,380.592743 494.787964,383.268494 C495.773499,385.854431 495.255280,388.504547 493.237518,390.695557 C488.046478,396.332245 482.879700,401.991394 477.727081,407.663239 C475.595276,410.009827 472.845001,410.244507 469.935791,410.178680 C457.277863,409.892090 444.614044,409.777191 431.963501,409.302399 C427.648346,409.140411 426.049133,410.389374 426.215668,414.895569 C426.585052,424.891815 425.408386,423.587738 435.203217,423.630920 C449.868927,423.695587 464.536774,423.528168 479.200226,423.721619 C484.002319,423.784973 488.665314,421.732727 493.978699,423.018433 C484.707733,430.763031 477.380188,439.934265 468.953400,448.028076 C466.940521,449.961395 464.502106,450.064758 461.976929,450.049683 C451.645142,449.988037 441.310608,450.046570 430.983185,449.802368 C427.600952,449.722382 426.177460,450.566620 426.283875,454.210602 C426.725311,469.324219 424.082611,466.757874 438.853119,466.915100 C447.516846,467.007355 456.185394,466.866241 464.848419,466.676788 C467.690521,466.614655 469.784424,467.367065 471.896667,469.467621 C478.747192,476.280273 485.898529,482.789825 492.903992,489.447723 C494.182556,490.662903 496.275726,491.771179 495.417236,493.877716 C494.542175,496.024963 492.208679,495.207855 490.496399,495.213593 C470.164398,495.281708 449.832153,495.272064 428.999939,495.283234 z"/>
  <path fill="#000000" opacity="1.000000" stroke="none" d=" M347.441711,466.639984 C353.912750,465.647705 366.963379,449.456451 366.503754,443.525726 C366.362274,441.700043 365.819458,439.804932 366.130371,438.061066 C368.125458,426.870758 362.539581,419.073273 354.949036,412.021759 C353.136200,410.337708 351.325134,409.310730 348.781311,409.345245 C341.618439,409.442413 334.448334,409.542297 327.291168,409.318939 C323.288361,409.194000 322.076080,410.835663 322.123932,414.634430 C322.291779,427.961273 321.819092,441.310272 322.431885,454.612030 C322.780243,462.173340 320.758087,468.064270 315.540527,473.420807 C310.321106,478.779236 305.154175,484.314972 300.844635,490.396820 C296.834564,496.056000 291.967560,495.769684 285.954681,494.664062 C286.833374,490.207916 289.875732,487.229553 292.174530,483.936829 C295.281342,479.486694 296.975616,475.153290 296.873352,469.314117 C296.397888,442.165131 296.758911,415.002563 296.572388,387.846527 C296.540436,383.197021 297.661011,381.469757 302.644653,381.537079 C322.634125,381.807159 342.629913,381.724243 362.622009,381.584808 C366.117249,381.560455 368.522461,382.638336 370.747742,385.316193 C375.002014,390.435669 379.205872,395.706055 384.136078,400.127167 C390.286835,405.642792 392.007904,412.280426 391.932281,420.095917 C391.808136,432.921936 392.037354,445.752441 392.222565,458.579559 C392.263306,461.401276 391.537079,463.796570 389.739655,465.943512 C382.366089,474.751099 375.013031,483.575806 367.659546,492.400177 C366.207886,494.142212 364.514221,495.238251 362.108337,495.231598 C343.449249,495.179779 324.789948,495.185760 306.130768,495.151489 C305.661163,495.150635 305.192047,494.892578 304.730530,494.756775 C303.975311,492.815704 305.545990,492.018311 306.527527,491.014618 C313.050171,484.344757 319.755524,477.845642 326.084717,470.998199 C329.037872,467.803345 332.121582,466.172119 336.515869,466.582062 C339.984192,466.905640 343.507050,466.644562 347.441711,466.639984 z"/>
  <path fill="#000000" opacity="1.000000" stroke="none" d=" M536.712524,395.304688 C549.826050,412.020355 562.725464,428.448792 575.624817,444.877228 C575.967102,444.760895 576.309387,444.644562 576.651672,444.528229 C576.651672,440.922607 576.653992,437.316956 576.651184,433.711334 C576.639099,418.048309 576.717773,402.384277 576.547852,386.722961 C576.505188,382.790283 577.887634,381.413177 581.781067,381.586853 C587.393616,381.837250 593.025696,381.650848 598.336975,381.650848 C599.709473,383.631226 599.326721,385.345337 599.329407,386.963593 C599.358704,404.626373 599.300110,422.289459 599.391052,439.951813 C599.406433,442.937866 598.617493,445.294342 596.754211,447.690643 C589.294250,457.284302 582.065125,467.057220 574.733276,476.750732 C573.848267,477.920837 572.857849,479.011139 571.225830,480.965027 C556.487549,462.133759 542.089600,443.737427 527.347473,424.901245 C527.347473,445.607239 527.387268,465.772247 527.331238,485.936981 C527.301819,496.522797 528.464294,495.227417 518.052307,495.363129 C514.553650,495.408722 511.035980,495.150330 507.559204,495.430389 C503.232574,495.778931 501.604858,494.229919 501.799011,489.772491 C502.284424,478.626648 502.570129,467.465485 502.626312,456.308899 C502.742981,433.147858 502.778503,409.984680 502.558563,386.825104 C502.513458,382.074127 503.825745,380.523376 508.703156,380.559204 C525.946716,380.685791 525.948059,380.513550 536.227478,394.598053 C536.325378,394.732239 536.408386,394.877380 536.712524,395.304688 z"/>
  <path fill="#000000" opacity="1.000000" stroke="none" d=" M570.036621,495.017395 C570.344055,490.700256 573.706238,488.209229 576.009644,485.168823 C601.337036,451.737671 626.857605,418.453003 652.254272,385.074249 C654.024170,382.748199 655.889221,381.530701 658.900330,381.586212 C665.727295,381.712189 672.566589,381.713226 679.386841,381.429352 C682.618408,381.294800 683.379211,382.590210 683.374756,385.482758 C683.320496,420.635223 683.314758,455.787842 683.371460,490.940308 C683.376587,494.114075 682.254150,495.479553 678.994995,495.362854 C674.502747,495.202087 669.998840,495.263062 665.502563,495.355988 C662.746399,495.412964 661.682007,494.212006 661.618042,491.484467 C661.481506,485.663452 660.760559,479.834869 660.964783,474.033569 C661.140198,469.050293 659.199402,467.626465 654.527100,467.951538 C648.884644,468.344025 643.205688,468.233978 637.542053,468.286987 C635.938477,468.302002 634.252441,468.551270 631.912537,467.061951 C638.137817,459.242188 644.076050,451.554260 650.310364,444.114441 C651.849548,442.277679 654.669128,442.765137 656.986694,442.690399 C659.073181,442.623108 660.926636,442.005005 660.488831,439.590515 C659.106995,431.970093 660.544434,424.369843 660.673157,415.522003 C652.952087,425.841553 645.973999,435.244263 638.914856,444.585754 C627.171143,460.126434 615.300781,475.572266 603.664062,491.192322 C601.318115,494.341309 598.735535,495.514679 594.876831,495.377289 C586.725952,495.087097 578.560120,495.218567 570.036621,495.017395 z"/>
  <path fill="#000000" opacity="1.000000" stroke="none" d=" M102.488144,393.505127 C108.374725,383.614014 116.526085,380.728851 127.711258,381.375214 C145.483215,382.402283 163.358170,381.647461 181.189560,381.646423 C182.986450,381.646332 184.783325,381.646393 187.788757,381.646393 C183.450699,386.913361 179.855011,391.340790 176.189102,395.709290 C173.514099,398.896973 170.389862,401.771027 168.113281,405.213104 C165.445374,409.246796 161.780106,410.279297 157.441574,410.292969 C148.442673,410.321320 139.442688,410.395233 130.445251,410.282501 C127.582474,410.246643 125.689758,411.270294 123.503143,413.212219 C114.656593,421.068878 110.254631,430.346741 112.263763,442.334900 C112.698570,444.929321 112.746010,447.733673 112.263649,450.308685 C110.983200,457.144318 115.051849,461.160522 119.365028,465.240753 C121.058693,466.842896 123.012794,466.632690 124.981056,466.636597 C136.146469,466.658752 147.311981,466.671448 158.477341,466.640381 C160.873459,466.633728 163.048981,466.848175 164.834045,468.798798 C171.920090,476.541992 179.094070,484.204681 186.197556,491.932068 C186.711929,492.491638 186.922592,493.330414 187.272049,494.034515 C185.671310,495.917358 183.707169,495.205139 182.011261,495.208649 C159.680511,495.255127 137.348648,495.118347 115.019516,495.311249 C110.596573,495.349487 107.424744,494.008728 104.651550,490.684998 C101.559547,486.979126 98.516418,483.070099 94.775345,480.102631 C87.390495,474.244904 85.247322,467.030365 85.730057,457.798767 C86.433937,444.337891 85.962921,430.810577 85.813622,417.313568 C85.776062,413.917480 86.712486,411.252869 89.026321,408.757202 C93.554512,403.873169 97.853279,398.776398 102.488144,393.505127 z"/>
  <path fill="#000000" opacity="1.000000" stroke="none" d=" M299.999756,554.735718 C314.658112,552.202698 325.714447,556.979309 333.899139,568.756165 C335.580597,571.175659 338.470398,572.590759 340.276642,576.056702 C337.042603,576.355286 334.180328,576.847595 331.317566,576.850403 C263.517212,576.916443 195.716812,576.928650 127.916428,576.958862 C125.890434,576.959778 123.977104,576.857178 122.330887,575.358704 C115.558792,569.194458 108.724678,563.098389 101.935883,556.952393 C101.362701,556.433472 100.532631,555.943176 100.935120,554.736023 C167.091797,554.736023 233.295807,554.736023 299.999756,554.735718 z"/>
  <path fill="#000000" opacity="1.000000" stroke="none" d=" M349.148254,585.867188 C354.452789,591.876587 359.489349,597.649231 364.600098,603.355530 C366.598175,605.586426 367.509094,608.038269 367.393768,611.075623 C367.216919,615.733765 367.479034,620.408936 367.287628,625.065918 C367.200897,627.176636 368.547089,630.414734 365.427002,631.024109 C362.343994,631.626160 358.675934,632.581055 356.003967,629.660950 C351.285889,624.504700 346.704163,619.223755 342.060852,613.999023 C341.135193,612.957458 340.678314,611.763550 340.683533,610.359741 C340.721436,600.198914 340.736176,590.038025 340.794037,579.877380 C340.796417,579.456360 341.153961,579.037354 341.514679,578.248657 C344.837036,580.030396 346.489136,583.229797 349.148254,585.867188 z"/>
</svg>